<?xml version="1.0" standalone="no"?>
<svg xmlns:xlink="http://www.w3.org/1999/xlink" xmlns="http://www.w3.org/2000/svg" class="vtree" width="960" height="800"><style>
.vtree-node text { font: 14px sans-serif; }
.vtree-link { fill: none; stroke: #888; stroke-width: 2px; }
.vtree-table { stroke-width: 2px; stroke: steelblue; }
path.vtree-table { fill: white; }
g.vtree-node rect { fill: white; stroke: black; stroke-width: 1px; }
g.vtree-node rect.number-text { fill: #d8f0ed; }
g.vtree-node rect.string-text { fill: #e7f0db; }
g.vtree-node rect.boolean-text { fill: #e1d8f0; }
g.vtree-node rect.null-text { fill: #888; }
</style><g class="vtree-root"><g class="vtree-node" transform="translate(480,242)"><g class="vtree-node" transform="translate(-75,0)"><path class="vtree-link" d="M75,37C75,92 75,92 75,147"/><g class="vtree-node" transform="translate(53,123)"><path class="vtree-link" d="M22,24C22,85 83,85 83,146"/><path class="vtree-link" d="M22,24C22,79 -58,79 -58,134"/><g class="vtree-node" transform="translate(-115,78)"><g transform="translate(0,20)"><g transform="translate(0,0)"><rect class="string-text" x="0" y="0" width="24" height="24"/><text x="4" y="20">sc</text></g><g transform="translate(24,0)"><rect class="number-text" x="0" y="0" width="89" height="24"/><text x="4" y="20">200</text></g><g transform="translate(0,24)"><rect class="string-text" x="0" y="0" width="24" height="24"/><text x="4" y="20">cl</text></g><g transform="translate(24,24)"><rect class="number-text" x="0" y="0" width="89" height="24"/><text x="4" y="20">187112</text></g><g transform="translate(0,48)"><rect class="string-text" x="0" y="0" width="24" height="24"/><text x="4" y="20">mt</text></g><g transform="translate(24,48)"><rect class="string-text" x="0" y="0" width="89" height="24"/><text x="4" y="20">text/calendar</text></g></g><g><text x="57" y="16" text-anchor="middle">src</text></g></g><g class="vtree-node" transform="translate(8,78)"><g transform="translate(0,20)"><g transform="translate(0,0)"><rect class="string-text" x="0" y="0" width="61" height="24"/><text x="4" y="20">sc</text></g><g transform="translate(61,0)"><rect class="number-text" x="0" y="0" width="89" height="24"/><text x="4" y="20">200</text></g><g transform="translate(0,24)"><rect class="string-text" x="0" y="0" width="61" height="24"/><text x="4" y="20">cl</text></g><g transform="translate(61,24)"><rect class="number-text" x="0" y="0" width="89" height="24"/><text x="4" y="20">7013</text></g><g transform="translate(0,48)"><rect class="string-text" x="0" y="0" width="61" height="24"/><text x="4" y="20">mt</text></g><g transform="translate(61,48)"><rect class="string-text" x="0" y="0" width="89" height="24"/><text x="4" y="20">text/calendar</text></g><g transform="translate(0,72)"><rect class="string-text" x="0" y="0" width="61" height="24"/><text x="4" y="20">contents</text></g><g transform="translate(61,72)"><rect class="string-text" x="0" y="0" width="89" height="24"/><text x="4" y="20">Aa==</text></g></g><g><text x="75" y="16" text-anchor="middle">out</text></g></g><g transform="translate(14,20)"><g transform="translate(0,0)"><rect class="string-text" x="0" y="0" width="8" height="8"/><text x="4" y="4"> </text></g><g transform="translate(8,0)"><rect class="string-text" x="0" y="0" width="8" height="8"/><text x="4" y="4"> </text></g></g><g><text x="22" y="16" text-anchor="middle">result</text></g></g><g transform="translate(0,0)"><rect class="string-text" x="0" y="0" width="65" height="24"/><text x="4" y="20">_id</text></g><g transform="translate(65,0)"><rect class="number-text" x="0" y="0" width="85" height="24"/><text x="4" y="20">1</text></g><g transform="translate(0,24)"><rect class="string-text" x="0" y="0" width="65" height="25"/><text x="4" y="20">date</text></g><g transform="translate(65,24)"><rect class="string-text" x="0" y="0" width="85" height="25"/><text x="4" y="21">yyyy-mm-dd</text></g><g transform="translate(0,49)"><rect class="string-text" x="0" y="0" width="65" height="24"/><text x="4" y="20">profile_id</text></g><g transform="translate(65,49)"><rect class="number-text" x="0" y="0" width="85" height="24"/><text x="4" y="20">1</text></g></g></g></g></svg>