<?xml version="1.0" standalone="no"?>
<svg xmlns:xlink="http://www.w3.org/1999/xlink" xmlns="http://www.w3.org/2000/svg" class="vtree" width="960" height="800"><style>
.vtree-node text { font: 14px sans-serif; }
.vtree-link { fill: none; stroke: #888; stroke-width: 2px; }
.vtree-table { stroke-width: 2px; stroke: steelblue; }
path.vtree-table { fill: white; }
g.vtree-node rect { fill: white; stroke: black; stroke-width: 1px; }
g.vtree-node rect.number-text { fill: #d8f0ed; }
g.vtree-node rect.string-text { fill: #e7f0db; }
g.vtree-node rect.boolean-text { fill: #e1d8f0; }
g.vtree-node rect.null-text { fill: #888; }
</style><g class="vtree-root" transform="translate(-53.74686409953699,37.800448793930116)scale(1.0088205580515324)"><g class="vtree-node" transform="translate(480,211)"><g class="vtree-node" transform="translate(-164,0)"><path class="vtree-link" d="M164,24C164,77 -194,77 -194,130"/><g class="vtree-node" transform="translate(164,98)"><path class="vtree-link" d="M96,32C96,32 296,32 296,32"/><path class="vtree-link" d="M-135,32C-135,32 96,32 96,32"/><path class="vtree-link" d="M-358,32C-358,32 -135,32 -135,32"/><g class="vtree-node" transform="translate(-418,0)"><g transform="translate(0,20)"><g transform="translate(0,0)"><rect class="string-text" x="0" y="0" width="24" height="24"/><text x="4" y="20">do</text></g><g transform="translate(24,0)"><rect class="string-text" x="0" y="0" width="96" height="24"/><text x="4" y="20">filters/filter-out</text></g></g><g><text x="60" y="16" text-anchor="middle">flows[0]</text></g></g><g class="vtree-node" transform="translate(-218,0)"><path class="vtree-link" d="M83,33C83,92 83,92 83,151"/><g class="vtree-node" transform="translate(-70,95)"><path class="vtree-link" d="M153,56C153,115 110,115 110,174"/><g class="vtree-node" transform="translate(153,142)"><path class="vtree-link" d="M-43,32C-43,32 22,32 22,32"/><g class="vtree-node" transform="translate(-61,0)"><g transform="translate(3,20)"><rect class="string-text" x="0" y="0" width="30" height="24"/><text x="4" y="20">title</text></g><g><text x="18" y="16" text-anchor="middle">in[0]</text></g></g><g class="vtree-node" transform="translate(-16,0)"><g transform="translate(0,20)"><rect class="string-text" x="0" y="0" width="76" height="24"/><text x="4" y="20">description</text></g><g><text x="38" y="16" text-anchor="middle">in[1]</text></g></g></g><g transform="translate(0,20)"><g transform="translate(0,0)"><rect class="string-text" x="0" y="0" width="97" height="24"/><text x="4" y="20">match</text></g><g transform="translate(97,0)"><rect class="string-text" x="0" y="0" width="209" height="24"/><text x="4" y="20">(?:Braun\,\s*(Heinrich))|(?:(Hei...</text></g><g transform="translate(0,24)"><rect class="string-text" x="0" y="0" width="97" height="24"/><text x="4" y="20">case-sensitive</text></g><g transform="translate(97,24)"><rect class="boolean-text" x="0" y="0" width="209" height="24"/><text x="4" y="20">false</text></g><g transform="translate(0,48)"><rect class="string-text" x="0" y="0" width="97" height="24"/><text x="4" y="20">replace</text></g><g transform="translate(97,48)"><rect class="string-text" x="0" y="0" width="209" height="24"/><text x="4" y="20">Braun "$1"</text></g></g><g><text x="153" y="16" text-anchor="middle">with</text></g></g><g transform="translate(0,20)"><g transform="translate(0,0)"><rect class="string-text" x="0" y="0" width="24" height="25"/><text x="4" y="20">do</text></g><g transform="translate(24,0)"><rect class="string-text" x="0" y="0" width="142" height="25"/><text x="4" y="21">actions/regex-replace</text></g></g><g><text x="83" y="16" text-anchor="middle">flows[1]</text></g></g><g class="vtree-node" transform="translate(28,0)"><path class="vtree-link" d="M68,32C68,79 99,79 99,126"/><path class="vtree-link" d="M68,32C68,79 38,79 38,126"/><g class="vtree-node" transform="translate(38,94)"><g class="vtree-node" transform="translate(-26,0)"><g transform="translate(3,20)"><rect class="string-text" x="0" y="0" width="45" height="24"/><text x="4" y="20">return</text></g><g><text x="26" y="16" text-anchor="middle">then[0]</text></g></g></g><g class="vtree-node" transform="translate(98,94)"><g class="vtree-node" transform="translate(-25,0)"><g transform="translate(3,20)"><rect class="string-text" x="0" y="0" width="45" height="24"/><text x="4" y="20">return</text></g><g><text x="25" y="16" text-anchor="middle">else[0]</text></g></g></g><g transform="translate(0,20)"><g transform="translate(0,0)"><rect class="string-text" x="0" y="0" width="15" height="24"/><text x="4" y="20">if</text></g><g transform="translate(15,0)"><rect class="string-text" x="0" y="0" width="120" height="24"/><text x="4" y="20">Date.isWeekend()</text></g></g><g><text x="68" y="16" text-anchor="middle">flows[2]</text></g></g><g class="vtree-node" transform="translate(173,0)"><path class="vtree-link" d="M123,33C123,80 123,80 123,127"/><g class="vtree-node" transform="translate(123,95)"><g class="vtree-node" transform="translate(-56,0)"><g transform="translate(0,20)"><g transform="translate(0,0)"><rect class="string-text" x="0" y="0" width="24" height="24"/><text x="4" y="20">do</text></g><g transform="translate(24,0)"><rect class="string-text" x="0" y="0" width="88" height="24"/><text x="4" y="20">filters/filter-in</text></g></g><g><text x="56" y="16" text-anchor="middle">then[0]</text></g></g></g><g transform="translate(0,20)"><g transform="translate(0,0)"><rect class="string-text" x="0" y="0" width="15" height="25"/><text x="4" y="20">if</text></g><g transform="translate(15,0)"><rect class="string-text" x="0" y="0" width="230" height="25"/><text x="4" y="21">(Date.isMonday() or Date.isTuesd...</text></g></g><g><text x="123" y="16" text-anchor="middle">flows[3]</text></g></g></g><g transform="translate(0,0)"><rect class="string-text" x="0" y="0" width="101" height="24"/><text x="4" y="20">name</text></g><g transform="translate(101,0)"><rect class="string-text" x="0" y="0" width="226" height="24"/><text x="4" y="20">Rename 'Heinrich Braun' to 'Hein...</text></g><g transform="translate(0,24)"><rect class="string-text" x="0" y="0" width="101" height="24"/><text x="4" y="20">cache-duration</text></g><g transform="translate(101,24)"><rect class="string-text" x="0" y="0" width="226" height="24"/><text x="4" y="20">5m</text></g></g></g></g></svg>