<?xml version="1.0" standalone="no"?>
<svg xmlns:xlink="http://www.w3.org/1999/xlink" xmlns="http://www.w3.org/2000/svg" class="vtree" width="960" height="800"><style>
.vtree-node text { font: 14px sans-serif; }
.vtree-link { fill: none; stroke: #888; stroke-width: 2px; }
.vtree-table { stroke-width: 2px; stroke: steelblue; }
path.vtree-table { fill: white; }
g.vtree-node rect { fill: white; stroke: black; stroke-width: 1px; }
g.vtree-node rect.number-text { fill: #d8f0ed; }
g.vtree-node rect.string-text { fill: #e7f0db; }
g.vtree-node rect.boolean-text { fill: #e1d8f0; }
g.vtree-node rect.null-text { fill: #888; }
</style><g class="vtree-root"><g class="vtree-node" transform="translate(480,257)"><g class="vtree-node" transform="translate(-141,0)"><path class="vtree-link" d="M141,48C141,137 190,137 190,226"/><path class="vtree-link" d="M141,48C141,119 35,119 35,190"/><g class="vtree-node" transform="translate(-9,146)"><g transform="translate(0,20)"><g transform="translate(0,0)"><rect class="string-text" x="0" y="0" width="31" height="24"/><text x="4" y="20">first</text></g><g transform="translate(31,0)"><rect class="string-text" x="0" y="0" width="57" height="24"/><text x="4" y="20">Luca</text></g><g transform="translate(0,24)"><rect class="string-text" x="0" y="0" width="31" height="24"/><text x="4" y="20">last</text></g><g transform="translate(31,24)"><rect class="string-text" x="0" y="0" width="57" height="24"/><text x="4" y="20">Wikwak</text></g></g><g><text x="44" y="16" text-anchor="middle">name</text></g></g><g class="vtree-node" transform="translate(89,146)"><g transform="translate(0,20)"><g transform="translate(0,0)"><rect class="string-text" x="0" y="0" width="44" height="24"/><text x="4" y="20">street</text></g><g transform="translate(44,0)"><rect class="string-text" x="0" y="0" width="158" height="24"/><text x="4" y="20">Am Neuen ICE Bahnhof</text></g><g transform="translate(0,24)"><rect class="string-text" x="0" y="0" width="44" height="24"/><text x="4" y="20">nr</text></g><g transform="translate(44,24)"><rect class="number-text" x="0" y="0" width="158" height="24"/><text x="4" y="20">14</text></g><g transform="translate(0,48)"><rect class="string-text" x="0" y="0" width="44" height="24"/><text x="4" y="20">extra</text></g><g transform="translate(44,48)"><rect class="null-text" x="0" y="0" width="158" height="24"/><text x="4" y="4"/></g><g transform="translate(0,72)"><rect class="string-text" x="0" y="0" width="44" height="24"/><text x="4" y="20">zc</text></g><g transform="translate(44,72)"><rect class="number-text" x="0" y="0" width="158" height="24"/><text x="4" y="20">187420</text></g><g transform="translate(0,96)"><rect class="string-text" x="0" y="0" width="44" height="24"/><text x="4" y="20">st</text></g><g transform="translate(44,96)"><rect class="string-text" x="0" y="0" width="158" height="24"/><text x="4" y="20">BW</text></g></g><g><text x="101" y="16" text-anchor="middle">address</text></g></g><g transform="translate(0,0)"><rect class="string-text" x="0" y="0" width="71" height="24"/><text x="4" y="20">_id</text></g><g transform="translate(71,0)"><rect class="string-text" x="0" y="0" width="211" height="24"/><text x="4" y="20">fefefefe-fefe-fefe-fefe-fefefefe...</text></g><g transform="translate(0,24)"><rect class="string-text" x="0" y="0" width="71" height="24"/><text x="4" y="20">username</text></g><g transform="translate(71,24)"><rect class="string-text" x="0" y="0" width="211" height="24"/><text x="4" y="20">wikwaklhackldackl</text></g><g transform="translate(0,48)"><rect class="string-text" x="0" y="0" width="71" height="24"/><text x="4" y="20">email</text></g><g transform="translate(71,48)"><rect class="string-text" x="0" y="0" width="211" height="24"/><text x="4" y="20">steckplatz.vier09@icloud.com</text></g><g transform="translate(0,72)"><rect class="string-text" x="0" y="0" width="71" height="24"/><text x="4" y="20">password</text></g><g transform="translate(71,72)"><rect class="string-text" x="0" y="0" width="211" height="24"/><text x="4" y="20">1$1fefefefefefefefefefefefefefef...</text></g></g></g></g></svg>